<svg width="100%" height="100%" viewBox="0 0 1000 637" version="1.1" xmlns="http://www.w3.org/2000/svg"
    style="fill-rule:evenodd;clip-rule:evenodd;stroke-miterlimit:3.864;">
    <path
        d="M314.286,302.577c10,1.241 18.572,2.812 28.572,3.913c2.856,0.128 5.714,-0.915 7.143,-2.872c5.713,-10.685 4.285,-24.514 5.713,-36.528l0,-0.258l-7.144,5.214l0,-9.643c22.859,-19.313 50.002,-42.399 60.001,-69.413c2.858,-18.129 18.572,-31.242 32.857,-44.871c8.572,-10.957 21.43,-12 32.857,-18.786c4.287,-4.115 5.714,-10.187 5.714,-16.444c-4.285,1.244 -11.427,2.415 -15.714,-1.043c-2.856,-0.585 -4.285,2.015 -5.714,3.658c-7.142,16.1 -22.857,28.572 -35.713,41.214c-14.287,12.787 -38.573,14.886 -55.716,6.787c-34.284,-14.015 -62.857,-40.174 -91.427,-65.23c-17.143,-14.8 -40,-12.328 -57.143,-23.214c-5.714,-2.485 -12.857,-7.242 -18.572,-4.185c-1.428,1.9 -2.857,5.228 -5.714,5.743c-2.858,0.528 -5.714,-2.086 -8.572,-0.787c-2.857,1.829 -2.857,5.286 -2.857,8.615c-0,6.915 5.715,12.857 11.429,15.915c17.143,9.856 41.427,5.542 54.285,24.786c17.143,24.07 34.286,49.586 59.999,69.413c4.287,3.786 10.002,7.629 14.287,11.215c10.001,-8.087 15.714,-17.614 20.001,-28.172c1.427,22.629 -18.572,40.172 -35.715,55.043c-12.857,9.599 -24.286,18.014 -37.144,26.614c-1.427,1.185 -1.427,3.457 -1.427,4.957l12.856,16.701c4.287,5.099 7.145,7.355 11.428,11.071c7.144,5.714 15.716,9.785 21.43,10.585l-0,0.002Z"
        style="fill:#fff;fill-rule:nonzero;stroke:#fff;stroke-width:1.01px;" />
    <path
        d="M1000,457.575l-52.858,0l-17.143,106.2c-4.285,25.414 -15.714,37.628 -41.427,37.628c-28.573,0 -32.858,-12.899 -28.573,-37.628l17.144,-106.2l-52.86,0l-17.141,103.614c-10.001,56.529 14.285,75.257 74.284,75.257c62.857,-0 92.858,-19.928 101.43,-74.943l17.144,-103.928Zm-274.286,81.657c25.715,-1.586 42.856,-15.6 47.143,-38.086c5.714,-33.228 -20.001,-43.571 -75.715,-43.571l-78.571,0l-28.571,175.414l89.999,0c47.144,0 82.858,-11.657 88.571,-49.428c4.287,-23.487 -7.142,-40.201 -42.856,-43.2l0,-1.129Zm-58.573,-46.259l27.143,0c17.143,0 25.714,4.701 22.856,15.358c-1.427,11.271 -11.428,16.613 -27.142,16.613l-28.571,0l5.714,-31.971Zm-11.428,67.372l28.571,-0c21.428,-0 31.429,7.486 30,19.544c-2.857,13.057 -12.857,17.698 -37.144,17.698l-27.142,0l5.715,-37.242Zm-155.714,34.844l2.857,37.8l57.142,0l-27.142,-175.414l-74.286,0l-85.715,175.414l57.144,0l15.714,-37.8l54.286,-0Zm-2.858,-35.471l-37.144,-0l15.716,-36.528c4.285,-10.572 8.571,-21.756 14.285,-36.172l1.429,0c1.429,14.314 1.429,24.971 2.858,36.056l2.856,36.644Zm-194.286,17.371c-2.856,-20.157 -14.285,-60.313 -31.428,-119.514l-75.712,0l-28.573,175.414l50.001,0c8.571,-59.372 15.714,-99.186 17.143,-119.513l1.429,-0c4.285,20.085 14.285,60.027 32.857,119.513l74.286,0l29.999,-175.414l-50,0c-10,59.171 -15.714,99.029 -18.572,119.514l-1.43,0Z"
        style="fill:#176fc0;fill-rule:nonzero;" />
    <path
        d="M118.736,0.411c-0.536,-0.057 -1.05,0.128 -1.585,0.791c-0,7.958 5.709,14.017 9.996,20.345c7.142,9.914 18.553,18.606 27.125,25.848c-20.001,-7.186 -38.542,-20.999 -57.112,-34.17c-1.429,-0.658 -2.889,-2.093 -4.316,-0.793c-1.429,5.086 1.458,9.184 4.316,13.299c15.714,18.914 37.111,28.745 57.11,37.56c-21.426,-2.156 -42.836,-9.324 -62.835,-16.952c-1.429,-0.729 -4.277,-1.9 -7.133,-1.057c-0,2.556 1.433,4.538 2.86,6.296c18.572,14.028 40,19.499 61.43,24.528c-18.572,2.015 -38.605,0.18 -55.748,-4.449c-2.858,-0.713 -7.119,-1.899 -11.405,-1.057c-0,4.373 5.685,6.732 8.543,8.631c15.714,7.758 34.313,9.593 52.885,11.494c-8.485,1.548 -17.092,2.329 -25.716,2.333c-10.001,0.129 -19.987,-1.306 -29.987,-0.793c-1.429,0.786 -0,1.691 -0,2.335c15.714,8.872 35.678,7.981 54.25,8.366c-7.144,2.8 -15.692,4.089 -24.263,4.932c-7.143,1.042 -14.277,-1.036 -19.991,0.793c-1.429,1.171 -0.02,2.548 1.409,3.39c11.428,5.814 27.125,4.705 39.983,4.447l-0,0.529c-5.715,4.901 -14.278,4.359 -19.992,6.517c-0,0.714 -1.429,2.084 -0,2.598c10,6.4 21.421,-3.628 32.85,1.585c11.428,6 21.465,13.708 32.892,22.194c32.858,33.528 68.564,64.208 107.137,84.765c-10.001,7.957 -20.032,13.437 -30.032,20.608c-2.858,1.829 -2.819,5.16 -2.819,8.102l5.68,7.707l14.313,16.821c1.427,-1.7 4.29,-4.103 2.86,-7.045l-7.176,-9.776l-5.68,-6.913c-0,-1.501 -0.02,-3.805 1.409,-4.976c12.856,-8.615 24.306,-16.998 37.164,-26.597c17.144,-14.871 37.14,-32.414 35.713,-55.043c-4.287,10.557 -9.992,20.051 -19.993,28.138c-4.285,-3.586 -10.025,-7.399 -14.31,-11.185c-25.715,-19.829 -42.833,-45.37 -59.976,-69.442c-12.856,-19.242 -37.15,-14.89 -54.292,-24.748c-7.144,-3.057 -11.45,-9.025 -11.45,-15.939c-0,-3.329 0.005,-6.802 2.862,-8.631c2.857,-1.301 5.729,1.322 8.587,0.792c2.857,-0.513 4.252,-3.824 5.68,-5.724c5.715,-3.058 12.869,1.698 18.583,4.184c17.143,10.885 40.012,8.405 57.155,23.205c28.573,25.058 57.131,51.201 91.415,65.215c17.143,8.1 41.418,6.005 55.705,-6.782c12.856,-12.642 28.611,-25.115 35.755,-41.216c1.428,-1.643 2.823,-4.241 5.679,-3.655c4.286,3.458 11.436,2.301 15.721,1.057c0,6.258 -1.437,12.311 -5.723,16.426c-11.43,6.785 -24.279,7.844 -32.851,18.803c-14.285,13.627 -29.992,26.742 -32.848,44.87c-10.001,27.015 -37.162,50.083 -60.019,69.398l-0,9.643l1.452,-0.88l5.726,-4.316l-0,4.316c-1.429,10.971 -1.439,22.954 -5.726,32.452c-1.428,1.959 -4.276,3.036 -7.132,2.907c-10.001,-1.099 -18.579,-2.677 -28.58,-3.918c-2.856,1.243 -2.86,4.181 -2.86,6.78c9.999,1.7 21.439,3.96 31.44,4.932c4.285,-0.186 8.547,-1.212 11.403,-4.14c8.572,-10.727 7.159,-25.356 8.587,-39.013c1.429,-1.543 1.409,-3.079 1.409,-4.58c4.261,1.596 8.548,3.123 12.858,4.58c18.572,6.014 38.567,10.595 58.567,13.695c32.855,7.499 74.311,-4.618 101.454,15.411c9.999,5.343 11.414,15.384 17.129,22.941c1.429,1.901 2.868,5.132 5.724,4.932c1.429,-0.642 1.409,-1.554 1.409,-2.597c-2.856,-6.072 -5.7,-12.644 -4.269,-19.816l8.585,15.148c4.285,6.328 9.967,16.117 18.538,17.218c1.429,-0.129 1.453,-1.328 1.453,-2.114c-8.572,-12.456 -17.153,-25.423 -18.582,-39.896c7.143,11.744 14.307,23.536 24.307,33.907c4.285,3.529 7.144,8.217 12.858,7.046l0,-1.85c-11.428,-15 -21.435,-30.104 -28.578,-46.677c9.999,13.044 21.402,26.985 34.258,36.769c5.714,2.616 10.006,6.741 15.72,4.712l0,-2.07c-15.714,-16.17 -31.411,-32.574 -39.983,-51.432c11.428,11.744 24.265,22.63 37.121,31.044c7.144,3.272 14.283,8.976 22.854,6.562l0,-2.113c-15.714,-12.829 -32.832,-25.336 -47.117,-40.82c-1.427,-2.072 -4.295,-4.199 -5.724,-6.385c2.856,1.843 7.139,4.143 9.996,6.385c2.857,1.5 4.276,3.001 7.133,4.316c17.143,9.456 34.319,18.773 55.748,16.688c1.428,-0.857 4.291,-1.24 2.861,-3.656c-0,-1.169 -1.452,-1.561 -1.452,-2.333c-12.858,-4.857 -24.284,-9.372 -35.712,-15.015c-8.571,-4.357 -17.12,-9.409 -24.263,-15.809c9.686,3.924 19.728,6.903 29.987,8.896c8.571,1.042 19.982,2.843 27.125,-1.586c-0,-0.714 1.429,-1.555 -0,-2.07c-45.714,-7.442 -85.693,-33.395 -124.264,-62.352l-4.316,-1.322c-40,2.086 -81.392,0.467 -115.677,-13.562l1.41,-1.321c12.856,-17.671 30.002,-38.335 51.431,-44.077l82.872,-53.502l-67.152,22.941l-2.862,0c-5.715,-4.171 -12.849,-8.051 -19.992,-6.737c-10,2.6 -14.277,13.964 -19.991,21.665c-17.143,16.171 -32.895,41.046 -58.609,38.046c-24.286,-4.243 -44.246,-17.307 -64.247,-31.794c-18.572,-14.685 -35.727,-33.557 -57.155,-44.915c-52.86,-15.056 -101.445,-41.596 -144.301,-82.167c-0.892,-0.205 -1.793,-0.962 -2.686,-1.056Zm196.964,242.407c-4.285,9.586 -10.004,19.043 -15.719,28.315c-15.715,24.243 -32.846,47.194 -55.703,68.208l-0,17.481l60.019,-52.708l34.257,-31.044l0,-1.937l-1.409,-9.027c-2.857,2.986 -5.709,6.013 -9.996,9.027c-15.714,14.485 -30.018,29.276 -47.159,42.933l-0,-0.265c11.427,-13.799 21.46,-28.069 30.03,-42.668c2.858,-4.115 4.277,-8.26 7.135,-12.419l-1.455,-15.896Z" />
    <path
        d="M534.286,204.461c8.572,5.086 17.142,11.286 25.713,17.742c1.429,1.887 2.858,4.559 1.429,7.301c-1.429,2.357 -2.856,4.771 -1.429,7.571c1.429,2.343 4.287,3.658 4.287,6.786c-0,6.2 -7.144,7.829 -11.428,9.657c-15.716,4.757 -22.858,-16.515 -37.144,-14.886c-21.428,-1.099 -41.427,5.287 -62.857,2.615c-20,-1.887 -38.571,-6.972 -57.143,-12.786c10.001,-11.414 17.143,-24.071 21.428,-37.571c35.715,13.113 75.715,17.286 117.144,13.57l0,0.001Z"
        style="fill:#fff;fill-rule:nonzero;stroke:#fff;stroke-width:1.01px;" />
    <path
        d="M220,321.704c-29.999,27.514 -58.571,59.4 -84.286,95.385c-45.714,65.687 -68.571,143.215 -82.856,215.758l-52.858,-0.014c12.858,-81.444 45.715,-162.201 95.714,-235.144c27.143,-39.8 58.572,-74.714 92.858,-104.528l31.428,28.543Zm548.57,-67.914c52.858,40.472 95.715,91.629 125.716,149.356l-4.287,0.987c-27.142,-43.514 -61.428,-82.272 -102.857,-114.715c-44.285,-34.001 -91.429,-58.015 -139.999,-72.671l12.857,-22.742c38.571,14.113 74.286,33.984 108.57,59.785"
        style="fill:#999;fill-rule:nonzero;" />
</svg>